<svg id="Capa_1" enable-background="new 0 0 512 512" height="512" viewBox="0 0 512 512" width="512" xmlns="http://www.w3.org/2000/svg"><g><path d="m403.983 464.917c65.363-46.383 108.017-122.668 108.017-208.917 0-141.385-114.615-256-256-256s-256 114.615-256 256c0 86.249 42.654 162.534 108.017 208.917z" fill="#c38778"/><path d="m486.931 145.379-74.74-74.74-94.62 158.875 28.163 18.519 58.249 216.883c65.363-46.382 108.017-122.667 108.017-208.916 0-39.62-9.001-77.138-25.069-110.621z" fill="#a65d4e"/><g><path d="m184.326 112.992-84.517-42.353 28.669 151.819z" fill="#fdba12"/></g><g><path d="m327.674 112.992 84.517-42.353-28.669 151.819z" fill="#ff9500"/></g><path d="m166.266 446.711c0-49.559 40.175-89.734 89.734-89.734s89.734 40.176 89.734 89.734v49.11c20.891-7.821 40.492-18.284 58.385-30.998l-35.407-236.309h-225.424l-35.407 236.309c17.892 12.714 37.493 23.177 58.384 30.998v-49.11z" fill="#fdba12"/><path d="m345.734 446.711v49.11c20.891-7.82 40.492-18.283 58.385-30.997l-35.407-236.309h-112.436v128.465c49.432.149 89.458 40.264 89.458 89.731z" fill="#ffa300"/><path d="m257 309.259 26.379-4.29 19.695-126.57h96.261c-.558-64.135-64.512-87.774-143.335-87.774s-142.777 23.639-143.335 87.774h96.261l19.695 126.57 26.379 4.29-1.465 9.384c.821.016 1.641.036 2.465.036s1.644-.02 2.465-.036z" fill="#ffce00"/><g><path d="m256 355.976c-49.559 0-89.734 40.175-89.734 89.734v50.121c27.924 10.453 58.161 16.169 89.734 16.169 31.572 0 61.81-5.716 89.734-16.168v-50.121c0-49.559-40.175-89.735-89.734-89.735z" fill="#ffa300"/></g><g><path d="m345.734 445.71c0-49.467-40.027-89.582-89.458-89.731v156.017c31.472-.033 61.615-5.743 89.458-16.165z" fill="#fe8205"/></g><g><path d="m254.375 318.668 1.625-10.409-26.379-4.29-19.695-126.57h-97.256c-.012.61-.018 1.224-.018 1.841 0 64.331 63.303 138.415 141.723 139.428z" fill="#ffe89c"/></g><path d="m257 309.259 26.379-4.29 19.695-126.57h96.261c-.557-64.06-64.363-87.718-143.059-87.773v228.049c.732-.001 1.459-.023 2.188-.037z" fill="#fdba12"/><g><path d="m257.625 318.668-1.625-10.409 26.379-4.29 19.695-126.57h97.256c.012.61.018 1.224.018 1.841 0 64.331-63.303 138.415-141.723 139.428z" fill="#fad17f"/></g><g><g><ellipse cx="181.394" cy="213.573" fill="#555a66" rx="17.267" ry="17.267" transform="matrix(.926 -.379 .379 .926 -67.368 84.597)"/></g><g><ellipse cx="330.606" cy="213.573" fill="#333940" rx="17.267" ry="17.267" transform="matrix(.787 -.618 .618 .787 -61.316 249.773)"/></g></g><g><path d="m282.379 303.969c0 11.753-11.81 21.281-26.379 21.281s-26.379-9.528-26.379-21.281 11.81-12.702 26.379-12.702 26.379.949 26.379 12.702z" fill="#414952"/></g><g><path d="m282.379 303.969c0-11.678-11.662-12.689-26.103-12.701v33.977c14.441-.121 26.103-9.598 26.103-21.276z" fill="#23272b"/></g></g></svg>